# xmcd CD database file
#
# Track frame offsets:
#	150
#	8370
#	11296
#	13943
#	20110
#	27868
#	31137
#	37730
#	56274
#	68007
#	71036
#
# Disc length: 997 seconds
#
# Revision: 0
# Processed by: cddbd v1.5PL3 Copyright (c) Steve Scherf et al.
# Submitted via: CDex 1.51
#
DISCID=7503e30b
DTITLE=Pee Wee Ellis - Wavelength Christmas Disc
DYEAR=1999
DGENRE=Jazz
TTITLE0=O come, O come Emmanuel
TTITLE1=In the bleak midwinter
TTITLE2=The first noel
TTITLE3=Jingle Bells
TTITLE4=Silent Night
TTITLE5=Mid wonter snow
TTITLE6=Hark, the herald angels sing
TTITLE7=Christmas song
TTITLE8=Christmas song (reprise)
TTITLE9=Merry Christmas
TTITLE10=Merry Christmas (reprise)
EXTD=YEAR: 1999
EXTT0=
EXTT1=
EXTT2=
EXTT3=
EXTT4=
EXTT5=
EXTT6=
EXTT7=
EXTT8=
EXTT9=
EXTT10=
PLAYORDER=
